  0
SECTION
  2
HEADER
  9
$ACADVER
  1
AC1015
  9
$ACADMAINTVER
 70
     6
  9
$DWGCODEPAGE
  3
ANSI_1252
  9
$INSBASE
 10
0.0
 20
0.0
 30
0.0
  9
$EXTMIN
 10
-44.534282479
 20
1.0
 30
0.0
  9
$EXTMAX
 10
88.8412009902
 20
51.0
 30
0.0
  9
$LIMMIN
 10
0.0
 20
0.0
  9
$LIMMAX
 10
420.0
 20
297.0
  9
$ORTHOMODE
 70
     0
  9
$REGENMODE
 70
     1
  9
$FILLMODE
 70
     1
  9
$QTEXTMODE
 70
     0
  9
$MIRRTEXT
 70
     1
  9
$LTSCALE
 40
1.0
  9
$ATTMODE
 70
     1
  9
$TEXTSIZE
 40
3.5
  9
$TRACEWID
 40
1.0
  9
$TEXTSTYLE
  7
Standard
  9
$CLAYER
  8
0
  9
$CELTYPE
  6
ByLayer
  9
$CECOLOR
 62
   256
  9
$CELTSCALE
 40
1.0
  9
$DISPSILH
 70
     0
  9
$DIMSCALE
 40
1.0
  9
$DIMASZ
 40
3.302
  9
$DIMEXO
 40
0.0
  9
$DIMDLI
 40
3.75
  9
$DIMRND
 40
0.0
  9
$DIMDLE
 40
0.0
  9
$DIMEXE
 40
1.0
  9
$DIMTP
 40
0.0
  9
$DIMTM
 40
0.0
  9
$DIMTXT
 40
3.5
  9
$DIMCEN
 40
2.5
  9
$DIMTSZ
 40
0.0
  9
$DIMTOL
 70
     0
  9
$DIMLIM
 70
     0
  9
$DIMTIH
 70
     1
  9
$DIMTOH
 70
     1
  9
$DIMSE1
 70
     0
  9
$DIMSE2
 70
     0
  9
$DIMTAD
 70
     1
  9
$DIMZIN
 70
     1
  9
$DIMBLK
  1

  9
$DIMASO
 70
     1
  9
$DIMSHO
 70
     1
  9
$DIMPOST
  1

  9
$DIMAPOST
  1

  9
$DIMALT
 70
     0
  9
$DIMALTD
 70
     3
  9
$DIMALTF
 40
0.0393700787
  9
$DIMLFAC
 40
1.0
  9
$DIMTOFL
 70
     1
  9
$DIMTVP
 40
0.0
  9
$DIMTIX
 70
     0
  9
$DIMSOXD
 70
     0
  9
$DIMSAH
 70
     0
  9
$DIMBLK1
  1

  9
$DIMBLK2
  1

  9
$DIMSTYLE
  2
ISO-25
  9
$DIMCLRD
 70
     0
  9
$DIMCLRE
 70
     0
  9
$DIMCLRT
 70
     0
  9
$DIMTFAC
 40
1.0
  9
$DIMGAP
 40
1.524
  9
$DIMJUST
 70
     0
  9
$DIMSD1
 70
     0
  9
$DIMSD2
 70
     0
  9
$DIMTOLJ
 70
     0
  9
$DIMTZIN
 70
     1
  9
$DIMALTZ
 70
     0
  9
$DIMALTTZ
 70
     0
  9
$DIMUPT
 70
     0
  9
$DIMDEC
 70
     2
  9
$DIMTDEC
 70
     2
  9
$DIMALTU
 70
     2
  9
$DIMALTTD
 70
     3
  9
$DIMTXSTY
  7
Standard
  9
$DIMAUNIT
 70
     0
  9
$DIMADEC
 70
     2
  9
$DIMALTRND
 40
0.0
  9
$DIMAZIN
 70
     0
  9
$DIMDSEP
 70
    44
  9
$DIMATFIT
 70
     3
  9
$DIMFRAC
 70
     0
  9
$DIMLDRBLK
  1

  9
$DIMLUNIT
 70
     2
  9
$DIMLWD
 70
    -2
  9
$DIMLWE
 70
    -2
  9
$DIMTMOVE
 70
     0
  9
$LUNITS
 70
     2
  9
$LUPREC
 70
     2
  9
$SKETCHINC
 40
1.0
  9
$FILLETRAD
 40
10.0
  9
$AUNITS
 70
     0
  9
$AUPREC
 70
     2
  9
$MENU
  1
.
  9
$ELEVATION
 40
0.0
  9
$PELEVATION
 40
0.0
  9
$THICKNESS
 40
0.0
  9
$LIMCHECK
 70
     0
  9
$CHAMFERA
 40
0.0
  9
$CHAMFERB
 40
0.0
  9
$CHAMFERC
 40
0.0
  9
$CHAMFERD
 40
0.0
  9
$SKPOLY
 70
     0
  9
$TDCREATE
 40
2459695.832393877
  9
$TDUCREATE
 40
2459695.749060544
  9
$TDUPDATE
 40
2459695.832490104
  9
$TDUUPDATE
 40
2459695.749156771
  9
$TDINDWG
 40
0.0000000116
  9
$TDUSRTIMER
 40
0.0000000116
  9
$USRTIMER
 70
     1
  9
$ANGBASE
 50
0.0
  9
$ANGDIR
 70
     0
  9
$PDMODE
 70
     0
  9
$PDSIZE
 40
-1.0
  9
$PLINEWID
 40
0.0
  9
$SPLFRAME
 70
     0
  9
$SPLINETYPE
 70
     6
  9
$SPLINESEGS
 70
     8
  9
$HANDSEED
  5
A7
  9
$SURFTAB1
 70
     6
  9
$SURFTAB2
 70
     6
  9
$SURFTYPE
 70
     6
  9
$SURFU
 70
     6
  9
$SURFV
 70
     6
  9
$UCSBASE
  2

  9
$UCSNAME
  2

  9
$UCSORG
 10
0.0
 20
0.0
 30
0.0
  9
$UCSXDIR
 10
1.0
 20
0.0
 30
0.0
  9
$UCSYDIR
 10
0.0
 20
1.0
 30
0.0
  9
$UCSORTHOREF
  2

  9
$UCSORTHOVIEW
 70
     0
  9
$UCSORGTOP
 10
0.0
 20
0.0
 30
0.0
  9
$UCSORGBOTTOM
 10
0.0
 20
0.0
 30
0.0
  9
$UCSORGLEFT
 10
0.0
 20
0.0
 30
0.0
  9
$UCSORGRIGHT
 10
0.0
 20
0.0
 30
0.0
  9
$UCSORGFRONT
 10
0.0
 20
0.0
 30
0.0
  9
$UCSORGBACK
 10
0.0
 20
0.0
 30
0.0
  9
$PUCSBASE
  2

  9
$PUCSNAME
  2

  9
$PUCSORG
 10
0.0
 20
0.0
 30
0.0
  9
$PUCSXDIR
 10
1.0
 20
0.0
 30
0.0
  9
$PUCSYDIR
 10
0.0
 20
1.0
 30
0.0
  9
$PUCSORTHOREF
  2

  9
$PUCSORTHOVIEW
 70
     0
  9
$PUCSORGTOP
 10
0.0
 20
0.0
 30
0.0
  9
$PUCSORGBOTTOM
 10
0.0
 20
0.0
 30
0.0
  9
$PUCSORGLEFT
 10
0.0
 20
0.0
 30
0.0
  9
$PUCSORGRIGHT
 10
0.0
 20
0.0
 30
0.0
  9
$PUCSORGFRONT
 10
0.0
 20
0.0
 30
0.0
  9
$PUCSORGBACK
 10
0.0
 20
0.0
 30
0.0
  9
$USERI1
 70
     0
  9
$USERI2
 70
     0
  9
$USERI3
 70
     0
  9
$USERI4
 70
     0
  9
$USERI5
 70
     0
  9
$USERR1
 40
0.0
  9
$USERR2
 40
0.0
  9
$USERR3
 40
0.0
  9
$USERR4
 40
0.0
  9
$USERR5
 40
0.0
  9
$WORLDVIEW
 70
     1
  9
$SHADEDGE
 70
     3
  9
$SHADEDIF
 70
    70
  9
$TILEMODE
 70
     1
  9
$MAXACTVP
 70
    64
  9
$PINSBASE
 10
0.0
 20
0.0
 30
0.0
  9
$PLIMCHECK
 70
     0
  9
$PEXTMIN
 10
1.0000000000E+20
 20
1.0000000000E+20
 30
1.0000000000E+20
  9
$PEXTMAX
 10
-1.0000000000E+20
 20
-1.0000000000E+20
 30
-1.0000000000E+20
  9
$PLIMMIN
 10
0.0
 20
0.0
  9
$PLIMMAX
 10
420.0
 20
297.0
  9
$UNITMODE
 70
     0
  9
$VISRETAIN
 70
     1
  9
$PLINEGEN
 70
     0
  9
$PSLTSCALE
 70
     1
  9
$TREEDEPTH
 70
  3020
  9
$CMLSTYLE
  2
Standard
  9
$CMLJUST
 70
     0
  9
$CMLSCALE
 40
20.0
  9
$PROXYGRAPHICS
 70
     1
  9
$MEASUREMENT
 70
     1
  9
$CELWEIGHT
370
    -1
  9
$ENDCAPS
280
     0
  9
$JOINSTYLE
280
     0
  9
$LWDISPLAY
290
     1
  9
$INSUNITS
 70
     4
  9
$HYPERLINKBASE
  1

  9
$STYLESHEET
  1

  9
$XEDIT
290
     1
  9
$CEPSNTYPE
380
     0
  9
$PSTYLEMODE
290
     1
  9
$FINGERPRINTGUID
  2
{31f7573c-2a3f-46df-ab54-0a81f1435c5f}
  9
$VERSIONGUID
  2
{FAEB1C32-E019-11D5-929B-00C0DF256EC4}
  9
$EXTNAMES
290
     1
  9
$PSVPSCALE
 40
0.0
  9
$OLESTARTUP
290
     0
  0
ENDSEC
  0
SECTION
  2
CLASSES
  0
CLASS
  1
ACDBDICTIONARYWDFLT
  2
AcDbDictionaryWithDefault
  3
ObjectDBX Classes
 90
        0
280
     0
281
     0
  0
CLASS
  1
VISUALSTYLE
  2
AcDbVisualStyle
  3
ObjectDBX Classes
 90
     4095
280
     0
281
     0
  0
CLASS
  1
MATERIAL
  2
AcDbMaterial
  3
ObjectDBX Classes
 90
     1153
280
     0
281
     0
  0
CLASS
  1
SCALE
  2
AcDbScale
  3
ObjectDBX Classes
 90
     1153
280
     0
281
     0
  0
CLASS
  1
TABLESTYLE
  2
AcDbTableStyle
  3
ObjectDBX Classes
 90
     4095
280
     0
281
     0
  0
CLASS
  1
MLEADERSTYLE
  2
AcDbMLeaderStyle
  3
ACDB_MLEADERSTYLE_CLASS
 90
     4095
280
     0
281
     0
  0
CLASS
  1
SUN
  2
AcDbSun
  3
SCENEOE
 90
     1153
280
     0
281
     0
  0
CLASS
  1
ACDBPLACEHOLDER
  2
AcDbPlaceHolder
  3
ObjectDBX Classes
 90
        0
280
     0
281
     0
  0
CLASS
  1
LAYOUT
  2
AcDbLayout
  3
ObjectDBX Classes
 90
        0
280
     0
281
     0
  0
ENDSEC
  0
SECTION
  2
TABLES
  0
TABLE
  2
VPORT
  5
8
330
0
100
AcDbSymbolTable
 70
     1
  0
VPORT
  5
29
330
8
100
AcDbSymbolTableRecord
100
AcDbViewportTableRecord
  2
*Active
 70
     0
 10
0.0
 20
0.0
 11
1.0
 21
1.0
 12
22.1534592556
 22
26.0
 13
0.0
 23
0.0
 14
10.0
 24
10.0
 15
10.0
 25
10.0
 16
0.0
 26
0.0
 36
1.0
 17
0.0
 27
0.0
 37
0.0
 40
51.0
 41
2.6675096694
 42
50.0
 43
0.0
 44
0.0
 50
0.0
 51
0.0
 71
     0
 72
   100
 73
     1
 74
     3
 75
     0
 76
     0
 77
     0
 78
     0
281
     0
 65
     1
110
0.0
120
0.0
130
0.0
111
1.0
121
0.0
131
0.0
112
0.0
122
1.0
132
0.0
 79
     0
146
0.0
  0
ENDTAB
  0
TABLE
  2
LTYPE
  5
5
330
0
100
AcDbSymbolTable
 70
     6
  0
LTYPE
  5
14
330
5
100
AcDbSymbolTableRecord
100
AcDbLinetypeTableRecord
  2
ByBlock
 70
     0
  3

 72
    65
 73
     0
 40
0.0
  0
LTYPE
  5
15
330
5
100
AcDbSymbolTableRecord
100
AcDbLinetypeTableRecord
  2
ByLayer
 70
     0
  3

 72
    65
 73
     0
 40
0.0
  0
LTYPE
  5
16
330
5
100
AcDbSymbolTableRecord
100
AcDbLinetypeTableRecord
  2
Continuous
 70
     0
  3
Solid line
 72
    65
 73
     0
 40
0.0
  0
LTYPE
  5
6E
330
5
100
AcDbSymbolTableRecord
100
AcDbLinetypeTableRecord
  2
HIDDEN
 70
     0
  3
Hidden __ __ __ __ __ __ __ __ __ __ __ __ __ __
 72
    65
 73
     2
 40
1.905
 49
1.27
 74
     0
 49
-0.635
 74
     0
  0
LTYPE
  5
6F
330
5
100
AcDbSymbolTableRecord
100
AcDbLinetypeTableRecord
  2
PHANTOM
 70
     0
  3
Phantom ______  __  __  ______  __  __  ______
 72
    65
 73
     6
 40
12.7
 49
6.35
 74
     0
 49
-1.27
 74
     0
 49
1.27
 74
     0
 49
-1.27
 74
     0
 49
1.27
 74
     0
 49
-1.27
 74
     0
  0
LTYPE
  5
70
330
5
100
AcDbSymbolTableRecord
100
AcDbLinetypeTableRecord
  2
CENTER
 70
     0
  3
Center ____ _ ____ _ ____ _ ____ _ ____ _ ____
 72
    65
 73
     4
 40
10.16
 49
6.35
 74
     0
 49
-1.27
 74
     0
 49
1.27
 74
     0
 49
-1.27
 74
     0
  0
LTYPE
  5
71
330
5
100
AcDbSymbolTableRecord
100
AcDbLinetypeTableRecord
  2
CENTERX2
 70
     0
  3
Center (2x) ________  __  ________  __  _____
 72
    65
 73
     4
 40
20.32
 49
12.7
 74
     0
 49
-2.54
 74
     0
 49
2.54
 74
     0
 49
-2.54
 74
     0
  0
LTYPE
  5
72
330
5
100
AcDbSymbolTableRecord
100
AcDbLinetypeTableRecord
  2
DOT2
 70
     0
  3
Dot (.5x) ........................................
 72
    65
 73
     2
 40
0.635
 49
0.0
 74
     0
 49
-0.635
 74
     0
  0
ENDTAB
  0
TABLE
  2
LAYER
  5
2
330
0
100
AcDbSymbolTable
 70
     1
  0
LAYER
  5
10
330
2
100
AcDbSymbolTableRecord
100
AcDbLayerTableRecord
  2
0
 70
     0
 62
     7
  6
Continuous
370
    -3
390
F
  0
ENDTAB
  0
TABLE
  2
STYLE
  5
3
330
0
100
AcDbSymbolTable
 70
     2
  0
STYLE
  5
11
330
3
100
AcDbSymbolTableRecord
100
AcDbTextStyleTableRecord
  2
Standard
 70
     0
 40
0.0
 41
1.0
 50
0.0
 71
     0
 42
3.5
  3
txt
  4

  0
STYLE
  5
A3
330
3
100
AcDbSymbolTableRecord
100
AcDbTextStyleTableRecord
  2
SLDTEXTSTYLE0
 70
     0
 40
0.0
 41
0.7
 50
0.0
 71
     0
 42
3.5
  3
TXT
  4

  0
ENDTAB
  0
TABLE
  2
VIEW
  5
6
330
0
100
AcDbSymbolTable
 70
     0
  0
ENDTAB
  0
TABLE
  2
UCS
  5
7
330
0
100
AcDbSymbolTable
 70
     0
  0
ENDTAB
  0
TABLE
  2
APPID
  5
9
330
0
100
AcDbSymbolTable
 70
     1
  0
APPID
  5
12
330
9
100
AcDbSymbolTableRecord
100
AcDbRegAppTableRecord
  2
ACAD
 70
     0
  0
ENDTAB
  0
TABLE
  2
DIMSTYLE
  5
A
330
0
100
AcDbSymbolTable
 70
     1
100
AcDbDimStyleTable
  0
DIMSTYLE
105
27
330
A
100
AcDbSymbolTableRecord
100
AcDbDimStyleTableRecord
  2
ISO-25
 70
     0
 41
2.5
 42
0.625
 43
3.75
 44
1.25
 73
     0
 74
     0
 77
     1
 78
     8
140
2.5
141
2.5
143
0.0393700787
147
0.625
171
     3
172
     1
178
     0
271
     2
272
     2
274
     3
278
    44
283
     0
284
     8
340
11
  0
ENDTAB
  0
TABLE
  2
BLOCK_RECORD
  5
1
330
0
100
AcDbSymbolTable
 70
     1
  0
BLOCK_RECORD
  5
1F
330
1
100
AcDbSymbolTableRecord
100
AcDbBlockTableRecord
  2
*Model_Space
340
22
  0
BLOCK_RECORD
  5
1B
330
1
100
AcDbSymbolTableRecord
100
AcDbBlockTableRecord
  2
*Paper_Space
340
1E
  0
BLOCK_RECORD
  5
23
330
1
100
AcDbSymbolTableRecord
100
AcDbBlockTableRecord
  2
*Paper_Space0
340
26
  0
ENDTAB
  0
ENDSEC
  0
SECTION
  2
BLOCKS
  0
BLOCK
  5
20
330
1F
100
AcDbEntity
  8
0
100
AcDbBlockBegin
  2
*Model_Space
 70
     0
 10
0.0
 20
0.0
 30
0.0
  3
*Model_Space
  1

  0
ENDBLK
  5
21
330
1F
100
AcDbEntity
  8
0
100
AcDbBlockEnd
  0
BLOCK
  5
1C
330
1B
100
AcDbEntity
 67
     1
  8
0
100
AcDbBlockBegin
  2
*Paper_Space
 70
     0
 10
0.0
 20
0.0
 30
0.0
  3
*Paper_Space
  1

  0
ENDBLK
  5
1D
330
1B
100
AcDbEntity
 67
     1
  8
0
100
AcDbBlockEnd
  0
BLOCK
  5
24
330
23
100
AcDbEntity
  8
0
100
AcDbBlockBegin
  2
*Paper_Space0
 70
     0
 10
0.0
 20
0.0
 30
0.0
  3
*Paper_Space0
  1

  0
ENDBLK
  5
25
330
23
100
AcDbEntity
  8
0
100
AcDbBlockEnd
  0
ENDSEC
  0
SECTION
  2
ENTITIES
  0
LINE
  5
73
330
1F
100
AcDbEntity
  8
0
  6
Continuous
 62
     7
370
    25
100
AcDbLine
 10
16.8696050889
 20
25.667227783
 30
0.0
 11
15.4867925889
 21
25.667227783
 31
0.0
  0
SPLINE
  5
74
330
1F
100
AcDbEntity
  8
0
  6
Continuous
 62
     7
370
    25
100
AcDbSpline
210
0.0
220
0.0
230
1.0
 70
     8
 71
     3
 72
    19
 73
    15
 74
     0
 42
0.00000001
 43
0.00000001
 40
0.0
 40
0.0
 40
0.0
 40
0.0
 40
0.1061166614786661
 40
0.2094850519054385
 40
0.3124154625007521
 40
0.4185948737429466
 40
0.4735277033828411
 40
0.5304642028084662
 40
0.5927820583213225
 40
0.6597717401167696
 40
0.7336053441473279
 40
0.8139312633881574
 40
0.903298739860074
 40
1.0
 40
1.0
 40
1.0
 40
1.0
 10
19.15345925558973
 20
23.74535278304232
 30
0.0
 10
19.14786765605515
 20
23.86646901943524
 30
0.0
 10
19.1368292714847
 20
24.10556475344929
 30
0.0
 10
19.05137387076911
 20
24.45418044780137
 30
0.0
 10
18.90693384712753
 20
24.7812240396497
 30
0.0
 10
18.74537666222069
 20
25.03764056841691
 30
0.0
 10
18.57742793725141
 20
25.22221694491457
 30
0.0
 10
18.41977718467253
 20
25.34503665859605
 30
0.0
 10
18.23093945317531
 20
25.44385743729174
 30
0.0
 10
18.01490518054006
 20
25.52920486360139
 30
0.0
 10
17.76905541537517
 20
25.58787036297868
 30
0.0
 10
17.49545132346707
 20
25.63695193040801
 30
0.0
 10
17.19203697317703
 20
25.66009414261066
 30
0.0
 10
16.97986986197117
 20
25.66478823136763
 30
0.0
 10
16.86960508892306
 20
25.66722778304232
 30
0.0
  0
SPLINE
  5
75
330
1F
100
AcDbEntity
  8
0
  6
Continuous
 62
     7
370
    25
100
AcDbSpline
210
0.0
220
0.0
230
1.0
 70
     8
 71
     3
 72
    23
 73
    19
 74
     0
 42
0.00000001
 43
0.00000001
 40
0.0
 40
0.0
 40
0.0
 40
0.0
 40
0.0787804864847853
 40
0.1522331841368089
 40
0.2216700540574972
 40
0.287260202078062
 40
0.3488970839915874
 40
0.407616591685081
 40
0.4636850549475249
 40
0.5190894925408616
 40
0.5730828569479737
 40
0.6276473489258899
 40
0.6828974164947365
 40
0.7402377894080775
 40
0.8001201725196163
 40
0.8626740170843904
 40
0.9291694281144987
 40
1.0
 40
1.0
 40
1.0
 40
1.0
 10
17.03106342225639
 20
21.83389444970899
 30
0.0
 10
17.11702294879109
 20
21.8356252370585
 30
0.0
 10
17.28312870689398
 20
21.83896976158528
 30
0.0
 10
17.52463962684462
 20
21.8580861331127
 30
0.0
 10
17.74871167723868
 20
21.89874596686791
 30
0.0
 10
17.95772412825049
 20
21.94870368275886
 30
0.0
 10
18.14888650988665
 20
22.01781537282356
 30
0.0
 10
18.32449976132401
 20
22.09733174598701
 30
0.0
 10
18.48368587930571
 20
22.19441958162642
 30
0.0
 10
18.62247643666899
 20
22.31039965679401
 30
0.0
 10
18.75152811260551
 20
22.43509799585226
 30
0.0
 10
18.85685614005078
 20
22.58040287336528
 30
0.0
 10
18.94932221174885
 20
22.73789728185
 30
0.0
 10
19.02539129227739
 20
22.91066008745252
 30
0.0
 10
19.08145762635962
 20
23.09908078265353
 30
0.0
 10
19.1230517327907
 20
23.30118920585781
 30
0.0
 10
19.15005610801764
 20
23.5180639557435
 30
0.0
 10
19.15230124791145
 20
23.66801196792294
 30
0.0
 10
19.15345925558973
 20
23.74535278304232
 30
0.0
  0
LINE
  5
76
330
1F
100
AcDbEntity
  8
0
  6
Continuous
 62
     7
370
    25
100
AcDbLine
 10
15.4867925889
 20
21.8338944497
 30
0.0
 11
17.0310634225
 21
21.8338944497
 31
0.0
  0
LINE
  5
77
330
1F
100
AcDbEntity
  8
0
  6
Continuous
 62
     7
370
    25
100
AcDbLine
 10
15.4867925889
 20
25.667227783
 30
0.0
 11
15.4867925889
 21
21.8338944497
 31
0.0
  0
LINE
  5
78
330
1F
100
AcDbEntity
  8
0
  6
Continuous
 62
     7
370
    25
100
AcDbLine
 10
16.8982509223
 20
30.667227783
 30
0.0
 11
15.4867925889
 21
30.667227783
 31
0.0
  0
SPLINE
  5
79
330
1F
100
AcDbEntity
  8
0
  6
Continuous
 62
     7
370
    25
100
AcDbSpline
210
0.0
220
0.0
230
1.0
 70
     8
 71
     3
 72
    23
 73
    19
 74
     0
 42
0.00000001
 43
0.00000001
 40
0.0
 40
0.0
 40
0.0
 40
0.0
 40
0.0742919579969933
 40
0.1436497242538574
 40
0.2085757311403698
 40
0.2696506039113327
 40
0.3267683945943175
 40
0.3811560644728693
 40
0.4340935143510983
 40
0.4853616075844999
 40
0.5377703577309473
 40
0.5921580276094995
 40
0.6500783252729971
 40
0.710846365860996
 40
0.7761239601928903
 40
0.8459203570114302
 40
0.9204942005845265
 40
1.0
 40
1.0
 40
1.0
 40
1.0
 10
18.82012592225639
 20
28.94847778304232
 30
0.0
 10
18.81847890091094
 20
29.02230528448616
 30
0.0
 10
18.8152942471679
 20
29.1650569430868
 30
0.0
 10
18.79508243736248
 20
29.3716320166059
 30
0.0
 10
18.75884841261669
 20
29.56260740808818
 30
0.0
 10
18.70784888611204
 20
29.73774846774048
 30
0.0
 10
18.63895868567129
 20
29.89521634304266
 30
0.0
 10
18.55848564262583
 20
30.03788007973279
 30
0.0
 10
18.4620300718091
 20
30.16327697962899
 30
0.0
 10
18.3500756772299
 20
30.2720989182268
 30
0.0
 10
18.2238711496627
 20
30.36624141894179
 30
0.0
 10
18.08159926825178
 20
30.44819053134841
 30
0.0
 10
17.92222552483554
 20
30.51351014642264
 30
0.0
 10
17.74921029074511
 20
30.57345272439122
 30
0.0
 10
17.55811508419525
 20
30.61243854827836
 30
0.0
 10
17.35214689472345
 20
30.64352054301638
 30
0.0
 10
17.13050019756635
 20
30.66592314081669
 30
0.0
 10
16.97730192863394
 20
30.66678372016737
 30
0.0
 10
16.89825092225639
 20
30.66722778304232
 30
0.0
  0
SPLINE
  5
7A
330
1F
100
AcDbEntity
  8
0
  6
Continuous
 62
     7
370
    25
100
AcDbSpline
210
0.0
220
0.0
230
1.0
 70
     8
 71
     3
 72
    19
 73
    15
 74
     0
 42
0.00000001
 43
0.00000001
 40
0.0
 40
0.0
 40
0.0
 40
0.0
 40
0.0969285673028941
 40
0.1851742320439651
 40
0.2650969398248256
 40
0.3379727047739351
 40
0.4044141030606749
 40
0.4634077377780442
 40
0.5183089057881832
 40
0.570128544408656
 40
0.6704024834765281
 40
0.77400656856811
 40
0.8824631512567351
 40
1.0
 40
1.0
 40
1.0
 40
1.0
 10
16.70814675558972
 20
27.16722778304232
 30
0.0
 10
16.81149298149371
 20
27.16858394416967
 30
0.0
 10
17.00892763413446
 20
27.17117478092989
 30
0.0
 10
17.29083033806509
 20
27.19444612289716
 30
0.0
 10
17.54513396161403
 20
27.23278921805572
 30
0.0
 10
17.77291073851155
 20
27.2867016996828
 30
0.0
 10
17.97303176888487
 20
27.3559840802772
 30
0.0
 10
18.14698234157999
 20
27.43924900134991
 30
0.0
 10
18.29230035145985
 20
27.54144172252809
 30
0.0
 10
18.44800129143756
 20
27.69909669687308
 30
0.0
 10
18.59853224585067
 20
27.92906078043055
 30
0.0
 10
18.7303689522466
 20
28.23645201413967
 30
0.0
 10
18.80595642279901
 20
28.5820595647339
 30
0.0
 10
18.81527791202091
 20
28.82310996195787
 30
0.0
 10
18.82012592225639
 20
28.94847778304232
 30
0.0
  0
LINE
  5
7B
330
1F
100
AcDbEntity
  8
0
  6
Continuous
 62
     7
370
    25
100
AcDbLine
 10
15.4867925889
 20
27.167227783
 30
0.0
 11
16.7081467557
 21
27.167227783
 31
0.0
  0
LINE
  5
7C
330
1F
100
AcDbEntity
  8
0
  6
Continuous
 62
     7
370
    25
100
AcDbLine
 10
15.4867925889
 20
30.667227783
 30
0.0
 11
15.4867925889
 21
27.167227783
 31
0.0
  0
LINE
  5
7D
330
1F
100
AcDbEntity
  8
0
  6
Continuous
 62
     7
370
    25
100
AcDbLine
 10
13.4867925889
 20
20.167227783
 30
0.0
 11
13.4867925889
 21
32.167227783
 31
0.0
  0
LINE
  5
7E
330
1F
100
AcDbEntity
  8
0
  6
Continuous
 62
     7
370
    25
100
AcDbLine
 10
17.1951259223
 20
20.167227783
 30
0.0
 11
13.4867925889
 21
20.167227783
 31
0.0
  0
SPLINE
  5
7F
330
1F
100
AcDbEntity
  8
0
  6
Continuous
 62
     7
370
    25
100
AcDbSpline
210
0.0
220
0.0
230
1.0
 70
     8
 71
     3
 72
    23
 73
    19
 74
     0
 42
0.00000001
 43
0.00000001
 40
0.0
 40
0.0
 40
0.0
 40
0.0
 40
0.0539599045860864
 40
0.1065508606894494
 40
0.158669183323433
 40
0.2098236864190058
 40
0.2608543814525516
 40
0.3121831640045472
 40
0.364461878504696
 40
0.4178812001604914
 40
0.4727844833774506
 40
0.5307006516799496
 40
0.5930071872204777
 40
0.660814531724308
 40
0.7346722667457931
 40
0.8154435748411194
 40
0.9037776395800907
 40
1.0
 40
1.0
 40
1.0
 40
1.0
 10
21.32012592225639
 20
23.46931111637566
 30
0.0
 10
21.31765140676687
 20
23.36069230302584
 30
0.0
 10
21.31276515359018
 20
23.14621030684247
 30
0.0
 10
21.27298873166585
 20
22.82876518528983
 30
0.0
 10
21.20542871127763
 20
22.52204586075844
 30
0.0
 10
21.11110911139115
 20
22.22570226537229
 30
0.0
 10
20.99060060057618
 20
21.94082098795456
 30
0.0
 10
20.84464104706905
 20
21.66537360773411
 30
0.0
 10
20.66815483443899
 20
21.40275358105878
 30
0.0
 10
20.46928688430662
 20
21.14750868548714
 30
0.0
 10
20.23084408267686
 20
20.91068983149495
 30
0.0
 10
19.93911133735641
 20
20.71006900195296
 30
0.0
 10
19.59957727510717
 20
20.54060568416224
 30
0.0
 10
19.21125310385127
 20
20.4051841833905
 30
0.0
 10
18.77678002798692
 20
20.29466640459584
 30
0.0
 10
18.29251598402645
 20
20.2231736920392
 30
0.0
 10
17.76034241232301
 20
20.17487058761375
 30
0.0
 10
17.38882454770759
 20
20.16984695775873
 30
0.0
 10
17.19512592225639
 20
20.16722778304232
 30
0.0
  0
SPLINE
  5
80
330
1F
100
AcDbEntity
  8
0
  6
Continuous
 62
     7
370
    25
100
AcDbSpline
210
0.0
220
0.0
230
1.0
 70
     8
 71
     3
 72
    23
 73
    19
 74
     0
 42
0.00000001
 43
0.00000001
 40
0.0
 40
0.0
 40
0.0
 40
0.0
 40
0.0689263674587424
 40
0.1347880714556893
 40
0.1979333259710693
 40
0.2598603601757751
 40
0.3193223518321795
 40
0.3783198733035169
 40
0.4358389984834771
 40
0.4937541039585954
 40
0.5516838233894045
 40
0.6101661671914178
 40
0.6702195531222589
 40
0.73111626459196
 40
0.7945557482976818
 40
0.8604399400121825
 40
0.9284109901412311
 40
1.0
 40
1.0
 40
1.0
 40
1.0
 10
19.17950092225639
 20
26.48233194970899
 30
0.0
 10
19.2667613989736
 20
26.45319231712816
 30
0.0
 10
19.4374025020037
 20
26.39620868338529
 30
0.0
 10
19.68032119186857
 20
26.29160032231772
 30
0.0
 10
19.9058485342512
 20
26.17283112360532
 30
0.0
 10
20.1167314111848
 20
26.04506882557569
 30
0.0
 10
20.30832853291996
 20
25.89883180704535
 30
0.0
 10
20.48512182216659
 20
25.74401782463194
 30
0.0
 10
20.64623838059991
 20
25.57554194796463
 30
0.0
 10
20.78925032526604
 20
25.39329828276666
 30
0.0
 10
20.91519590542249
 20
25.19723252458933
 30
0.0
 10
21.0211088150491
 20
24.98663863416589
 30
0.0
 10
21.1155982779745
 20
24.76645167563796
 30
0.0
 10
21.19191018372785
 20
24.53213984029322
 30
0.0
 10
21.24802994735134
 20
24.28432290428798
 30
0.0
 10
21.28909653241291
 20
24.024193302278
 30
0.0
 10
21.31671553267983
 20
23.75115199068116
 30
0.0
 10
21.31896964715087
 20
23.56486782019595
 30
0.0
 10
21.32012592225639
 20
23.46931111637566
 30
0.0
  0
SPLINE
  5
81
330
1F
100
AcDbEntity
  8
0
  6
Continuous
 62
     7
370
    25
100
AcDbSpline
210
0.0
220
0.0
230
1.0
 70
     8
 71
     3
 72
    15
 73
    11
 74
     0
 42
0.00000001
 43
0.00000001
 40
0.0
 40
0.0
 40
0.0
 40
0.0
 40
0.1396010391478109
 40
0.2683793469725519
 40
0.3900889117163808
 40
0.506388250376505
 40
0.6225568199369392
 40
0.7412578588855815
 40
0.8659470630270131
 40
1.0
 40
1.0
 40
1.0
 40
1.0
 10
20.98679258892306
 20
29.11254028304232
 30
0.0
 10
20.98145931500934
 20
28.95246926214235
 30
0.0
 10
20.9712062353838
 20
28.64473691057385
 30
0.0
 10
20.88836912300085
 20
28.2030697070764
 30
0.0
 10
20.74369674968187
 20
27.80668494396208
 30
0.0
 10
20.54721335114403
 20
27.4490260650212
 30
0.0
 10
20.28679709224377
 20
27.13904665574396
 30
0.0
 10
19.97252707964566
 20
26.86994971543436
 30
0.0
 10
19.59963652631041
 20
26.64577154107764
 30
0.0
 10
19.32288462228796
 20
26.53811054384849
 30
0.0
 10
19.17950092225639
 20
26.48233194970899
 30
0.0
  0
SPLINE
  5
82
330
1F
100
AcDbEntity
  8
0
  6
Continuous
 62
     7
370
    25
100
AcDbSpline
210
0.0
220
0.0
230
1.0
 70
     8
 71
     3
 72
    23
 73
    19
 74
     0
 42
0.00000001
 43
0.00000001
 40
0.0
 40
0.0
 40
0.0
 40
0.0
 40
0.0592926267820107
 40
0.1149369002054911
 40
0.1674321460291257
 40
0.2158690935908998
 40
0.2607919973690823
 40
0.3022749953081241
 40
0.3403152326374735
 40
0.3751038639914189
 40
0.4412538745744222
 40
0.508944372392976
 40
0.5801259802148325
 40
0.6568837219798068
 40
0.737509848169358
 40
0.8203688338433126
 40
0.9069932905670494
 40
0.9999999999999999
 40
0.9999999999999999
 40
0.9999999999999999
 40
0.9999999999999999
 10
17.16127175558973
 20
32.16722778304232
 30
0.0
 10
17.27325805530567
 20
32.16694042405742
 30
0.0
 10
17.49033999033536
 20
32.16638338766413
 30
0.0
 10
17.80645283867657
 20
32.15603590878325
 30
0.0
 10
18.10160638003952
 20
32.1374218652188
 30
0.0
 10
18.37618625048528
 20
32.11494530129756
 30
0.0
 10
18.62909221572146
 20
32.08416659319087
 30
0.0
 10
18.86082607283093
 20
32.04461881382485
 30
0.0
 10
19.07244204888125
 20
32.00144035665964
 30
0.0
 10
19.32606343110129
 20
31.93317026071093
 30
0.0
 10
19.62268644567736
 20
31.81233111299495
 30
0.0
 10
19.94833455758224
 20
31.59774648892613
 30
0.0
 10
20.23802478734608
 20
31.30870914901634
 30
0.0
 10
20.49996869332799
 20
30.96411533685785
 30
0.0
 10
20.71918828405411
 20
30.56440804212262
 30
0.0
 10
20.87439434927951
 20
30.11644520706134
 30
0.0
 10
20.97076757426076
 20
29.62792713688772
 30
0.0
 10
20.98132587275557
 20
29.28835751040846
 30
0.0
 10
20.98679258892307
 20
29.11254028304232
 30
0.0
  0
LINE
  5
83
330
1F
100
AcDbEntity
  8
0
  6
Continuous
 62
     7
370
    25
100
AcDbLine
 10
13.4867925889
 20
32.167227783
 30
0.0
 11
17.1612717556
 21
32.167227783
 31
0.0
  0
LINE
  5
84
330
1F
100
AcDbEntity
  8
0
  6
Continuous
 62
     7
370
    25
100
AcDbLine
 10
26.7029384223
 20
25.667227783
 30
0.0
 11
25.3201259223
 21
25.667227783
 31
0.0
  0
SPLINE
  5
85
330
1F
100
AcDbEntity
  8
0
  6
Continuous
 62
     7
370
    25
100
AcDbSpline
210
0.0
220
0.0
230
1.0
 70
     8
 71
     3
 72
    19
 73
    15
 74
     0
 42
0.00000001
 43
0.00000001
 40
0.0
 40
0.0
 40
0.0
 40
0.0
 40
0.1061166614786662
 40
0.2094850519054391
 40
0.3124154625007529
 40
0.4185948737429474
 40
0.473527703382842
 40
0.5304642028084655
 40
0.5927820583213201
 40
0.6597717401167691
 40
0.7336053441473275
 40
0.8139312633881551
 40
0.9032987398600739
 40
1.0
 40
1.0
 40
1.0
 40
1.0
 10
28.98679258892306
 20
23.74535278304232
 30
0.0
 10
28.98120098938849
 20
23.86646901943524
 30
0.0
 10
28.97016260481804
 20
24.10556475344928
 30
0.0
 10
28.88470720410244
 20
24.45418044780138
 30
0.0
 10
28.74026718046086
 20
24.78122403964972
 30
0.0
 10
28.578709995554
 20
25.0376405684169
 30
0.0
 10
28.41076127058474
 20
25.22221694491457
 30
0.0
 10
28.25311051800587
 20
25.34503665859605
 30
0.0
 10
28.06427278650865
 20
25.44385743729175
 30
0.0
 10
27.8482385138734
 20
25.52920486360138
 30
0.0
 10
27.60238874870852
 20
25.58787036297868
 30
0.0
 10
27.3287846568004
 20
25.63695193040801
 30
0.0
 10
27.02537030651037
 20
25.66009414261067
 30
0.0
 10
26.81320319530451
 20
25.66478823136763
 30
0.0
 10
26.7029384222564
 20
25.66722778304232
 30
0.0
  0
SPLINE
  5
86
330
1F
100
AcDbEntity
  8
0
  6
Continuous
 62
     7
370
    25
100
AcDbSpline
210
0.0
220
0.0
230
1.0
 70
     8
 71
     3
 72
    23
 73
    19
 74
     0
 42
0.00000001
 43
0.00000001
 40
0.0
 40
0.0
 40
0.0
 40
0.0
 40
0.0787804864847853
 40
0.1522331841368091
 40
0.2216700540574953
 40
0.2872602020780642
 40
0.3488970839915858
 40
0.4076165916850795
 40
0.4636850549475234
 40
0.5190894925408601
 40
0.5730828569479722
 40
0.6276473489258899
 40
0.6828974164947353
 40
0.740237789408077
 40
0.800120172519616
 40
0.8626740170843905
 40
0.9291694281144985
 40
1.0
 40
1.0
 40
1.0
 40
1.0
 10
26.86439675558973
 20
21.83389444970899
 30
0.0
 10
26.95035628212443
 20
21.8356252370585
 30
0.0
 10
27.11646204022732
 20
21.83896976158528
 30
0.0
 10
27.35797296017796
 20
21.8580861331127
 30
0.0
 10
27.58204501057202
 20
21.89874596686792
 30
0.0
 10
27.79105746158382
 20
21.94870368275886
 30
0.0
 10
27.98221984321997
 20
22.01781537282355
 30
0.0
 10
28.15783309465735
 20
22.09733174598701
 30
0.0
 10
28.31701921263904
 20
22.19441958162642
 30
0.0
 10
28.45580977000231
 20
22.31039965679402
 30
0.0
 10
28.58486144593885
 20
22.43509799585226
 30
0.0
 10
28.69018947338411
 20
22.58040287336527
 30
0.0
 10
28.78265554508218
 20
22.73789728184999
 30
0.0
 10
28.85872462561072
 20
22.91066008745253
 30
0.0
 10
28.91479095969295
 20
23.09908078265353
 30
0.0
 10
28.95638506612405
 20
23.30118920585781
 30
0.0
 10
28.98338944135096
 20
23.5180639557435
 30
0.0
 10
28.98563458124478
 20
23.66801196792294
 30
0.0
 10
28.98679258892306
 20
23.74535278304232
 30
0.0
  0
LINE
  5
87
330
1F
100
AcDbEntity
  8
0
  6
Continuous
 62
     7
370
    25
100
AcDbLine
 10
25.3201259223
 20
21.8338944497
 30
0.0
 11
26.8643967557
 21
21.8338944497
 31
0.0
  0
LINE
  5
88
330
1F
100
AcDbEntity
  8
0
  6
Continuous
 62
     7
370
    25
100
AcDbLine
 10
25.3201259223
 20
25.667227783
 30
0.0
 11
25.3201259223
 21
21.8338944497
 31
0.0
  0
LINE
  5
89
330
1F
100
AcDbEntity
  8
0
  6
Continuous
 62
     7
370
    25
100
AcDbLine
 10
26.7315842556
 20
30.667227783
 30
0.0
 11
25.3201259223
 21
30.667227783
 31
0.0
  0
SPLINE
  5
8A
330
1F
100
AcDbEntity
  8
0
  6
Continuous
 62
     7
370
    25
100
AcDbSpline
210
0.0
220
0.0
230
1.0
 70
     8
 71
     3
 72
    23
 73
    19
 74
     0
 42
0.00000001
 43
0.00000001
 40
0.0
 40
0.0
 40
0.0
 40
0.0
 40
0.0742919579969934
 40
0.1436497242538577
 40
0.2085757311403701
 40
0.2696506039113331
 40
0.3267683945943172
 40
0.3811560644728706
 40
0.4340935143510978
 40
0.4853616075845011
 40
0.5377703577309486
 40
0.592158027609501
 40
0.6500783252729945
 40
0.7108463658609977
 40
0.7761239601928899
 40
0.8459203570114276
 40
0.9204942005845241
 40
1.0
 40
1.0
 40
1.0
 40
1.0
 10
28.65345925558972
 20
28.94847778304232
 30
0.0
 10
28.65181223424428
 20
29.02230528448617
 30
0.0
 10
28.64862758050123
 20
29.1650569430868
 30
0.0
 10
28.62841577069581
 20
29.37163201660589
 30
0.0
 10
28.59218174595002
 20
29.56260740808819
 30
0.0
 10
28.54118221944536
 20
29.73774846774048
 30
0.0
 10
28.47229201900463
 20
29.89521634304267
 30
0.0
 10
28.39181897595916
 20
30.03788007973279
 30
0.0
 10
28.29536340514242
 20
30.163276979629
 30
0.0
 10
28.18340901056325
 20
30.2720989182268
 30
0.0
 10
28.05720448299602
 20
30.36624141894177
 30
0.0
 10
27.91493260158514
 20
30.44819053134843
 30
0.0
 10
27.75555885816887
 20
30.51351014642263
 30
0.0
 10
27.58254362407845
 20
30.57345272439122
 30
0.0
 10
27.39144841752858
 20
30.61243854827837
 30
0.0
 10
27.1854802280568
 20
30.64352054301638
 30
0.0
 10
26.9638335308997
 20
30.66592314081668
 30
0.0
 10
26.81063526196726
 20
30.66678372016737
 30
0.0
 10
26.73158425558973
 20
30.66722778304232
 30
0.0
  0
SPLINE
  5
8B
330
1F
100
AcDbEntity
  8
0
  6
Continuous
 62
     7
370
    25
100
AcDbSpline
210
0.0
220
0.0
230
1.0
 70
     8
 71
     3
 72
    19
 73
    15
 74
     0
 42
0.00000001
 43
0.00000001
 40
0.0
 40
0.0
 40
0.0
 40
0.0
 40
0.0969285673028944
 40
0.1851742320439626
 40
0.2650969398248221
 40
0.3379727047739339
 40
0.4044141030606719
 40
0.4634077377780433
 40
0.5183089057881823
 40
0.5701285444086539
 40
0.6704024834765274
 40
0.7740065685681088
 40
0.8824631512567352
 40
1.0
 40
1.0
 40
1.0
 40
1.0
 10
26.54148008892306
 20
27.16722778304232
 30
0.0
 10
26.64482631482705
 20
27.16858394416966
 30
0.0
 10
26.84226096746782
 20
27.17117478092988
 30
0.0
 10
27.12416367139842
 20
27.19444612289716
 30
0.0
 10
27.37846729494737
 20
27.23278921805571
 30
0.0
 10
27.60624407184488
 20
27.2867016996828
 30
0.0
 10
27.8063651022182
 20
27.3559840802772
 30
0.0
 10
27.98031567491332
 20
27.4392490013499
 30
0.0
 10
28.12563368479319
 20
27.54144172252811
 30
0.0
 10
28.28133462477089
 20
27.69909669687307
 30
0.0
 10
28.43186557918402
 20
27.92906078043056
 30
0.0
 10
28.56370228557993
 20
28.23645201413967
 30
0.0
 10
28.63928975613237
 20
28.5820595647339
 30
0.0
 10
28.64861124535424
 20
28.82310996195786
 30
0.0
 10
28.65345925558972
 20
28.94847778304232
 30
0.0
  0
LINE
  5
8C
330
1F
100
AcDbEntity
  8
0
  6
Continuous
 62
     7
370
    25
100
AcDbLine
 10
25.3201259223
 20
27.167227783
 30
0.0
 11
26.541480089
 21
27.167227783
 31
0.0
  0
LINE
  5
8D
330
1F
100
AcDbEntity
  8
0
  6
Continuous
 62
     7
370
    25
100
AcDbLine
 10
25.3201259223
 20
30.667227783
 30
0.0
 11
25.3201259223
 21
27.167227783
 31
0.0
  0
LINE
  5
8E
330
1F
100
AcDbEntity
  8
0
  6
Continuous
 62
     7
370
    25
100
AcDbLine
 10
23.3201259223
 20
20.167227783
 30
0.0
 11
23.3201259223
 21
32.167227783
 31
0.0
  0
LINE
  5
8F
330
1F
100
AcDbEntity
  8
0
  6
Continuous
 62
     7
370
    25
100
AcDbLine
 10
27.0284592556
 20
20.167227783
 30
0.0
 11
23.3201259223
 21
20.167227783
 31
0.0
  0
SPLINE
  5
90
330
1F
100
AcDbEntity
  8
0
  6
Continuous
 62
     7
370
    25
100
AcDbSpline
210
0.0
220
0.0
230
1.0
 70
     8
 71
     3
 72
    23
 73
    19
 74
     0
 42
0.00000001
 43
0.00000001
 40
0.0
 40
0.0
 40
0.0
 40
0.0
 40
0.0539599045860865
 40
0.1065508606894496
 40
0.1586691833234332
 40
0.2098236864190065
 40
0.2608543814525517
 40
0.3121831640045479
 40
0.3644618785046961
 40
0.4178812001604916
 40
0.472784483377452
 40
0.5307006516799498
 40
0.5930071872204781
 40
0.6608145317243073
 40
0.7346722667457937
 40
0.815443574841119
 40
0.9037776395800916
 40
1.0
 40
1.0
 40
1.0
 40
1.0
 10
31.15345925558973
 20
23.46931111637566
 30
0.0
 10
31.15098474010021
 20
23.36069230302585
 30
0.0
 10
31.14609848692353
 20
23.14621030684247
 30
0.0
 10
31.10632206499917
 20
22.82876518528983
 30
0.0
 10
31.03876204461094
 20
22.52204586075842
 30
0.0
 10
30.94444244472448
 20
22.2257022653723
 30
0.0
 10
30.82393393390952
 20
21.94082098795456
 30
0.0
 10
30.67797438040239
 20
21.66537360773411
 30
0.0
 10
30.50148816777233
 20
21.40275358105878
 30
0.0
 10
30.30262021763995
 20
21.14750868548713
 30
0.0
 10
30.06417741601019
 20
20.91068983149497
 30
0.0
 10
29.77244467068974
 20
20.71006900195295
 30
0.0
 10
29.4329106084405
 20
20.54060568416224
 30
0.0
 10
29.04458643718462
 20
20.4051841833905
 30
0.0
 10
28.61011336132025
 20
20.29466640459584
 30
0.0
 10
28.1258493173598
 20
20.2231736920392
 30
0.0
 10
27.59367574565634
 20
20.17487058761374
 30
0.0
 10
27.22215788104093
 20
20.16984695775873
 30
0.0
 10
27.02845925558974
 20
20.16722778304232
 30
0.0
  0
SPLINE
  5
91
330
1F
100
AcDbEntity
  8
0
  6
Continuous
 62
     7
370
    25
100
AcDbSpline
210
0.0
220
0.0
230
1.0
 70
     8
 71
     3
 72
    23
 73
    19
 74
     0
 42
0.00000001
 43
0.00000001
 40
0.0
 40
0.0
 40
0.0
 40
0.0
 40
0.0689263674587409
 40
0.1347880714556893
 40
0.1979333259710694
 40
0.2598603601757751
 40
0.3193223518321796
 40
0.378319873303517
 40
0.4358389984834755
 40
0.4937541039585964
 40
0.5516838233894054
 40
0.6101661671914171
 40
0.6702195531222589
 40
0.7311162645919596
 40
0.7945557482976816
 40
0.8604399400121826
 40
0.9284109901412309
 40
1.0
 40
1.0
 40
1.0
 40
1.0
 10
29.01283425558972
 20
26.48233194970899
 30
0.0
 10
29.10009473230694
 20
26.45319231712817
 30
0.0
 10
29.27073583533702
 20
26.39620868338529
 30
0.0
 10
29.5136545252019
 20
26.29160032231772
 30
0.0
 10
29.73918186758453
 20
26.17283112360531
 30
0.0
 10
29.95006474451812
 20
26.04506882557568
 30
0.0
 10
30.14166186625332
 20
25.89883180704535
 30
0.0
 10
30.31845515549992
 20
25.74401782463194
 30
0.0
 10
30.47957171393325
 20
25.57554194796463
 30
0.0
 10
30.62258365859938
 20
25.39329828276666
 30
0.0
 10
30.74852923875586
 20
25.19723252458935
 30
0.0
 10
30.85444214838243
 20
24.98663863416589
 30
0.0
 10
30.94893161130783
 20
24.76645167563796
 30
0.0
 10
31.02524351706119
 20
24.53213984029323
 30
0.0
 10
31.08136328068466
 20
24.28432290428797
 30
0.0
 10
31.12242986574624
 20
24.024193302278
 30
0.0
 10
31.15004886601316
 20
23.75115199068116
 30
0.0
 10
31.15230298048419
 20
23.56486782019595
 30
0.0
 10
31.15345925558972
 20
23.46931111637566
 30
0.0
  0
SPLINE
  5
92
330
1F
100
AcDbEntity
  8
0
  6
Continuous
 62
     7
370
    25
100
AcDbSpline
210
0.0
220
0.0
230
1.0
 70
     8
 71
     3
 72
    15
 73
    11
 74
     0
 42
0.00000001
 43
0.00000001
 40
0.0
 40
0.0
 40
0.0
 40
0.0
 40
0.1396010391478112
 40
0.2683793469725521
 40
0.3900889117163807
 40
0.506388250376505
 40
0.6225568199369407
 40
0.7412578588855828
 40
0.8659470630270129
 40
1.0
 40
1.0
 40
1.0
 40
1.0
 10
30.8201259222564
 20
29.11254028304232
 30
0.0
 10
30.81479264834267
 20
28.95246926214235
 30
0.0
 10
30.80453956871713
 20
28.64473691057385
 30
0.0
 10
30.72170245633416
 20
28.20306970707639
 30
0.0
 10
30.57703008301522
 20
27.80668494396209
 30
0.0
 10
30.38054668447736
 20
27.44902606502118
 30
0.0
 10
30.12013042557711
 20
27.13904665574398
 30
0.0
 10
29.80586041297898
 20
26.86994971543438
 30
0.0
 10
29.43296985964376
 20
26.64577154107763
 30
0.0
 10
29.1562179556213
 20
26.53811054384849
 30
0.0
 10
29.01283425558972
 20
26.48233194970899
 30
0.0
  0
SPLINE
  5
93
330
1F
100
AcDbEntity
  8
0
  6
Continuous
 62
     7
370
    25
100
AcDbSpline
210
0.0
220
0.0
230
1.0
 70
     8
 71
     3
 72
    23
 73
    19
 74
     0
 42
0.00000001
 43
0.00000001
 40
0.0
 40
0.0
 40
0.0
 40
0.0
 40
0.0592926267820123
 40
0.1149369002054921
 40
0.1674321460291284
 40
0.2158690935909011
 40
0.2607919973690837
 40
0.3022749953081253
 40
0.3403152326374747
 40
0.37510386399142
 40
0.4412538745744232
 40
0.5089443723929767
 40
0.580125980214833
 40
0.6568837219798074
 40
0.7375098481693585
 40
0.8203688338433125
 40
0.9069932905670496
 40
1.0
 40
1.0
 40
1.0
 40
1.0
 10
26.99460508892306
 20
32.16722778304232
 30
0.0
 10
27.10659138863899
 20
32.16694042405742
 30
0.0
 10
27.32367332366868
 20
32.16638338766413
 30
0.0
 10
27.6397861720099
 20
32.15603590878324
 30
0.0
 10
27.93493971337287
 20
32.13742186521881
 30
0.0
 10
28.20951958381862
 20
32.11494530129755
 30
0.0
 10
28.4624255490548
 20
32.08416659319087
 30
0.0
 10
28.69415940616426
 20
32.04461881382485
 30
0.0
 10
28.90577538221458
 20
32.00144035665964
 30
0.0
 10
29.15939676443463
 20
31.93317026071093
 30
0.0
 10
29.45601977901069
 20
31.81233111299495
 30
0.0
 10
29.78166789091559
 20
31.59774648892613
 30
0.0
 10
30.07135812067941
 20
31.30870914901634
 30
0.0
 10
30.33330202666133
 20
30.96411533685785
 30
0.0
 10
30.55252161738746
 20
30.56440804212263
 30
0.0
 10
30.70772768261283
 20
30.11644520706134
 30
0.0
 10
30.80410090759411
 20
29.62792713688772
 30
0.0
 10
30.81465920608892
 20
29.28835751040845
 30
0.0
 10
30.8201259222564
 20
29.11254028304232
 30
0.0
  0
LINE
  5
94
330
1F
100
AcDbEntity
  8
0
  6
Continuous
 62
     7
370
    25
100
AcDbLine
 10
23.3201259223
 20
32.167227783
 30
0.0
 11
26.9946050889
 21
32.167227783
 31
0.0
  0
CIRCLE
  5
95
330
1F
100
AcDbEntity
  8
0
  6
Continuous
 62
     7
370
    25
100
AcDbCircle
 10
22.1534592556
 20
26.0
 30
0.0
 40
15.49999999999999
  0
LINE
  5
96
330
1F
100
AcDbEntity
  8
0
  6
Continuous
 62
     7
370
    25
100
AcDbLine
 10
-44.534282479
 20
1.0
 30
0.0
 11
88.8412009902
 21
1.0
 31
0.0
  0
LINE
  5
97
330
1F
100
AcDbEntity
  8
0
  6
Continuous
 62
     7
370
    25
100
AcDbLine
 10
88.8412009902
 20
51.0
 30
0.0
 11
88.8412009902
 21
1.0
 31
0.0
  0
LINE
  5
98
330
1F
100
AcDbEntity
  8
0
  6
Continuous
 62
     7
370
    25
100
AcDbLine
 10
-44.534282479
 20
51.0
 30
0.0
 11
88.8412009902
 21
51.0
 31
0.0
  0
LINE
  5
99
330
1F
100
AcDbEntity
  8
0
  6
Continuous
 62
     7
370
    25
100
AcDbLine
 10
-44.534282479
 20
51.0
 30
0.0
 11
-44.534282479
 21
1.0
 31
0.0
  0
SPLINE
  5
9A
330
1F
100
AcDbEntity
  8
0
  6
Continuous
 62
     7
370
    25
100
AcDbSpline
210
0.0
220
0.0
230
1.0
 70
     8
 71
     3
 72
    23
 73
    19
 74
     0
 42
0.00000001
 43
0.00000001
 40
0.0
 40
0.0
 40
0.0
 40
0.0
 40
0.0592926267820123
 40
0.1149369002054921
 40
0.1674321460291284
 40
0.2158690935909011
 40
0.2607919973690837
 40
0.3022749953081253
 40
0.3403152326374747
 40
0.37510386399142
 40
0.4412538745744232
 40
0.5089443723929767
 40
0.580125980214833
 40
0.6568837219798074
 40
0.7375098481693585
 40
0.8203688338433125
 40
0.9069932905670496
 40
1.0
 40
1.0
 40
1.0
 40
1.0
 10
26.99460508892306
 20
32.16722778304232
 30
0.0
 10
27.106591388639
 20
32.16694042405742
 30
0.0
 10
27.32367332366869
 20
32.16638338766413
 30
0.0
 10
27.63978617200991
 20
32.15603590878324
 30
0.0
 10
27.93493971337287
 20
32.13742186521881
 30
0.0
 10
28.20951958381863
 20
32.11494530129755
 30
0.0
 10
28.4624255490548
 20
32.08416659319087
 30
0.0
 10
28.69415940616426
 20
32.04461881382485
 30
0.0
 10
28.90577538221459
 20
32.00144035665964
 30
0.0
 10
29.15939676443463
 20
31.93317026071093
 30
0.0
 10
29.4560197790107
 20
31.81233111299495
 30
0.0
 10
29.78166789091559
 20
31.59774648892613
 30
0.0
 10
30.07135812067941
 20
31.30870914901634
 30
0.0
 10
30.33330202666133
 20
30.96411533685785
 30
0.0
 10
30.55252161738746
 20
30.56440804212263
 30
0.0
 10
30.70772768261283
 20
30.11644520706134
 30
0.0
 10
30.80410090759412
 20
29.62792713688772
 30
0.0
 10
30.81465920608892
 20
29.28835751040845
 30
0.0
 10
30.8201259222564
 20
29.11254028304232
 30
0.0
  0
SPLINE
  5
9B
330
1F
100
AcDbEntity
  8
0
  6
Continuous
 62
     7
370
    25
100
AcDbSpline
210
0.0
220
0.0
230
1.0
 70
     8
 71
     3
 72
    15
 73
    11
 74
     0
 42
0.00000001
 43
0.00000001
 40
0.0
 40
0.0
 40
0.0
 40
0.0
 40
0.1396010391478112
 40
0.2683793469725521
 40
0.3900889117163807
 40
0.506388250376505
 40
0.6225568199369407
 40
0.7412578588855828
 40
0.8659470630270129
 40
1.0
 40
1.0
 40
1.0
 40
1.0
 10
30.8201259222564
 20
29.11254028304232
 30
0.0
 10
30.81479264834268
 20
28.95246926214235
 30
0.0
 10
30.80453956871713
 20
28.64473691057385
 30
0.0
 10
30.72170245633417
 20
28.20306970707639
 30
0.0
 10
30.57703008301522
 20
27.80668494396209
 30
0.0
 10
30.38054668447736
 20
27.44902606502118
 30
0.0
 10
30.12013042557712
 20
27.13904665574398
 30
0.0
 10
29.80586041297899
 20
26.86994971543438
 30
0.0
 10
29.43296985964376
 20
26.64577154107763
 30
0.0
 10
29.1562179556213
 20
26.53811054384849
 30
0.0
 10
29.01283425558973
 20
26.48233194970899
 30
0.0
  0
SPLINE
  5
9C
330
1F
100
AcDbEntity
  8
0
  6
Continuous
 62
     7
370
    25
100
AcDbSpline
210
0.0
220
0.0
230
1.0
 70
     8
 71
     3
 72
    23
 73
    19
 74
     0
 42
0.00000001
 43
0.00000001
 40
0.0
 40
0.0
 40
0.0
 40
0.0
 40
0.0689263674587409
 40
0.1347880714556893
 40
0.1979333259710694
 40
0.2598603601757751
 40
0.3193223518321796
 40
0.378319873303517
 40
0.4358389984834755
 40
0.4937541039585964
 40
0.5516838233894054
 40
0.6101661671914171
 40
0.6702195531222589
 40
0.7311162645919596
 40
0.7945557482976816
 40
0.8604399400121826
 40
0.9284109901412309
 40
1.0
 40
1.0
 40
1.0
 40
1.0
 10
29.01283425558973
 20
26.48233194970899
 30
0.0
 10
29.10009473230694
 20
26.45319231712817
 30
0.0
 10
29.27073583533702
 20
26.39620868338529
 30
0.0
 10
29.5136545252019
 20
26.29160032231772
 30
0.0
 10
29.73918186758453
 20
26.17283112360531
 30
0.0
 10
29.95006474451812
 20
26.04506882557568
 30
0.0
 10
30.14166186625332
 20
25.89883180704535
 30
0.0
 10
30.31845515549992
 20
25.74401782463194
 30
0.0
 10
30.47957171393325
 20
25.57554194796463
 30
0.0
 10
30.62258365859939
 20
25.39329828276666
 30
0.0
 10
30.74852923875586
 20
25.19723252458935
 30
0.0
 10
30.85444214838243
 20
24.98663863416589
 30
0.0
 10
30.94893161130784
 20
24.76645167563796
 30
0.0
 10
31.02524351706119
 20
24.53213984029323
 30
0.0
 10
31.08136328068466
 20
24.28432290428797
 30
0.0
 10
31.12242986574625
 20
24.024193302278
 30
0.0
 10
31.15004886601317
 20
23.75115199068116
 30
0.0
 10
31.15230298048419
 20
23.56486782019595
 30
0.0
 10
31.15345925558973
 20
23.46931111637566
 30
0.0
  0
SPLINE
  5
9D
330
1F
100
AcDbEntity
  8
0
  6
Continuous
 62
     7
370
    25
100
AcDbSpline
210
0.0
220
0.0
230
1.0
 70
     8
 71
     3
 72
    23
 73
    19
 74
     0
 42
0.00000001
 43
0.00000001
 40
0.0
 40
0.0
 40
0.0
 40
0.0
 40
0.0539599045860865
 40
0.1065508606894496
 40
0.1586691833234332
 40
0.2098236864190065
 40
0.2608543814525517
 40
0.3121831640045479
 40
0.3644618785046961
 40
0.4178812001604916
 40
0.472784483377452
 40
0.5307006516799498
 40
0.5930071872204781
 40
0.6608145317243073
 40
0.7346722667457937
 40
0.815443574841119
 40
0.9037776395800916
 40
1.0
 40
1.0
 40
1.0
 40
1.0
 10
31.15345925558973
 20
23.46931111637566
 30
0.0
 10
31.15098474010021
 20
23.36069230302585
 30
0.0
 10
31.14609848692353
 20
23.14621030684247
 30
0.0
 10
31.10632206499917
 20
22.82876518528983
 30
0.0
 10
31.03876204461096
 20
22.52204586075842
 30
0.0
 10
30.94444244472449
 20
22.2257022653723
 30
0.0
 10
30.82393393390953
 20
21.94082098795456
 30
0.0
 10
30.67797438040239
 20
21.66537360773411
 30
0.0
 10
30.50148816777233
 20
21.40275358105878
 30
0.0
 10
30.30262021763996
 20
21.14750868548713
 30
0.0
 10
30.06417741601019
 20
20.91068983149497
 30
0.0
 10
29.77244467068975
 20
20.71006900195295
 30
0.0
 10
29.4329106084405
 20
20.54060568416224
 30
0.0
 10
29.04458643718462
 20
20.4051841833905
 30
0.0
 10
28.61011336132025
 20
20.29466640459584
 30
0.0
 10
28.12584931735981
 20
20.2231736920392
 30
0.0
 10
27.59367574565634
 20
20.17487058761374
 30
0.0
 10
27.22215788104093
 20
20.16984695775873
 30
0.0
 10
27.02845925558974
 20
20.16722778304232
 30
0.0
  0
CIRCLE
  5
9E
330
1F
100
AcDbEntity
  8
0
  6
Continuous
 62
     7
370
    25
100
AcDbCircle
 10
22.1534592556
 20
26.0
 30
0.0
 40
14.99999999999999
  0
SPLINE
  5
9F
330
1F
100
AcDbEntity
  8
0
  6
Continuous
 62
     7
370
    25
100
AcDbSpline
210
0.0
220
0.0
230
1.0
 70
     8
 71
     3
 72
    23
 73
    19
 74
     0
 42
0.00000001
 43
0.00000001
 40
0.0
 40
0.0
 40
0.0
 40
0.0
 40
0.0592926267820107
 40
0.1149369002054911
 40
0.1674321460291257
 40
0.2158690935908998
 40
0.2607919973690823
 40
0.3022749953081241
 40
0.3403152326374735
 40
0.3751038639914189
 40
0.4412538745744222
 40
0.508944372392976
 40
0.5801259802148325
 40
0.6568837219798068
 40
0.737509848169358
 40
0.8203688338433126
 40
0.9069932905670494
 40
0.9999999999999999
 40
0.9999999999999999
 40
0.9999999999999999
 40
0.9999999999999999
 10
17.16127175558973
 20
32.16722778304232
 30
0.0
 10
17.27325805530567
 20
32.16694042405742
 30
0.0
 10
17.49033999033536
 20
32.16638338766413
 30
0.0
 10
17.80645283867657
 20
32.15603590878325
 30
0.0
 10
18.10160638003953
 20
32.1374218652188
 30
0.0
 10
18.37618625048529
 20
32.11494530129756
 30
0.0
 10
18.62909221572146
 20
32.08416659319087
 30
0.0
 10
18.86082607283093
 20
32.04461881382485
 30
0.0
 10
19.07244204888125
 20
32.00144035665964
 30
0.0
 10
19.32606343110129
 20
31.93317026071093
 30
0.0
 10
19.62268644567737
 20
31.81233111299495
 30
0.0
 10
19.94833455758224
 20
31.59774648892613
 30
0.0
 10
20.23802478734608
 20
31.30870914901634
 30
0.0
 10
20.49996869332799
 20
30.96411533685785
 30
0.0
 10
20.71918828405412
 20
30.56440804212262
 30
0.0
 10
20.87439434927951
 20
30.11644520706134
 30
0.0
 10
20.97076757426076
 20
29.62792713688772
 30
0.0
 10
20.98132587275557
 20
29.28835751040846
 30
0.0
 10
20.98679258892307
 20
29.11254028304232
 30
0.0
  0
SPLINE
  5
A0
330
1F
100
AcDbEntity
  8
0
  6
Continuous
 62
     7
370
    25
100
AcDbSpline
210
0.0
220
0.0
230
1.0
 70
     8
 71
     3
 72
    15
 73
    11
 74
     0
 42
0.00000001
 43
0.00000001
 40
0.0
 40
0.0
 40
0.0
 40
0.0
 40
0.1396010391478109
 40
0.2683793469725519
 40
0.3900889117163808
 40
0.506388250376505
 40
0.6225568199369392
 40
0.7412578588855815
 40
0.8659470630270131
 40
1.0
 40
1.0
 40
1.0
 40
1.0
 10
20.98679258892307
 20
29.11254028304232
 30
0.0
 10
20.98145931500934
 20
28.95246926214235
 30
0.0
 10
20.9712062353838
 20
28.64473691057385
 30
0.0
 10
20.88836912300085
 20
28.2030697070764
 30
0.0
 10
20.74369674968188
 20
27.80668494396208
 30
0.0
 10
20.54721335114403
 20
27.4490260650212
 30
0.0
 10
20.28679709224378
 20
27.13904665574396
 30
0.0
 10
19.97252707964566
 20
26.86994971543436
 30
0.0
 10
19.59963652631042
 20
26.64577154107764
 30
0.0
 10
19.32288462228796
 20
26.53811054384849
 30
0.0
 10
19.17950092225639
 20
26.48233194970899
 30
0.0
  0
SPLINE
  5
A1
330
1F
100
AcDbEntity
  8
0
  6
Continuous
 62
     7
370
    25
100
AcDbSpline
210
0.0
220
0.0
230
1.0
 70
     8
 71
     3
 72
    23
 73
    19
 74
     0
 42
0.00000001
 43
0.00000001
 40
0.0
 40
0.0
 40
0.0
 40
0.0
 40
0.0689263674587424
 40
0.1347880714556893
 40
0.1979333259710693
 40
0.2598603601757751
 40
0.3193223518321795
 40
0.3783198733035169
 40
0.4358389984834771
 40
0.4937541039585954
 40
0.5516838233894045
 40
0.6101661671914178
 40
0.6702195531222589
 40
0.73111626459196
 40
0.7945557482976818
 40
0.8604399400121825
 40
0.9284109901412311
 40
1.0
 40
1.0
 40
1.0
 40
1.0
 10
19.17950092225639
 20
26.48233194970899
 30
0.0
 10
19.26676139897361
 20
26.45319231712816
 30
0.0
 10
19.4374025020037
 20
26.39620868338529
 30
0.0
 10
19.68032119186857
 20
26.29160032231772
 30
0.0
 10
19.90584853425121
 20
26.17283112360532
 30
0.0
 10
20.1167314111848
 20
26.04506882557569
 30
0.0
 10
20.30832853291997
 20
25.89883180704535
 30
0.0
 10
20.48512182216659
 20
25.74401782463194
 30
0.0
 10
20.64623838059991
 20
25.57554194796463
 30
0.0
 10
20.78925032526605
 20
25.39329828276666
 30
0.0
 10
20.91519590542249
 20
25.19723252458933
 30
0.0
 10
21.0211088150491
 20
24.98663863416589
 30
0.0
 10
21.1155982779745
 20
24.76645167563796
 30
0.0
 10
21.19191018372785
 20
24.53213984029322
 30
0.0
 10
21.24802994735134
 20
24.28432290428798
 30
0.0
 10
21.28909653241291
 20
24.024193302278
 30
0.0
 10
21.31671553267984
 20
23.75115199068116
 30
0.0
 10
21.31896964715087
 20
23.56486782019595
 30
0.0
 10
21.3201259222564
 20
23.46931111637566
 30
0.0
  0
SPLINE
  5
A2
330
1F
100
AcDbEntity
  8
0
  6
Continuous
 62
     7
370
    25
100
AcDbSpline
210
0.0
220
0.0
230
1.0
 70
     8
 71
     3
 72
    23
 73
    19
 74
     0
 42
0.00000001
 43
0.00000001
 40
0.0
 40
0.0
 40
0.0
 40
0.0
 40
0.0539599045860864
 40
0.1065508606894494
 40
0.158669183323433
 40
0.2098236864190058
 40
0.2608543814525516
 40
0.3121831640045472
 40
0.364461878504696
 40
0.4178812001604914
 40
0.4727844833774506
 40
0.5307006516799496
 40
0.5930071872204777
 40
0.660814531724308
 40
0.7346722667457931
 40
0.8154435748411194
 40
0.9037776395800907
 40
1.0
 40
1.0
 40
1.0
 40
1.0
 10
21.3201259222564
 20
23.46931111637566
 30
0.0
 10
21.31765140676687
 20
23.36069230302584
 30
0.0
 10
21.31276515359018
 20
23.14621030684247
 30
0.0
 10
21.27298873166585
 20
22.82876518528983
 30
0.0
 10
21.20542871127764
 20
22.52204586075844
 30
0.0
 10
21.11110911139115
 20
22.22570226537229
 30
0.0
 10
20.99060060057619
 20
21.94082098795456
 30
0.0
 10
20.84464104706905
 20
21.66537360773411
 30
0.0
 10
20.668154834439
 20
21.40275358105878
 30
0.0
 10
20.46928688430662
 20
21.14750868548714
 30
0.0
 10
20.23084408267686
 20
20.91068983149495
 30
0.0
 10
19.93911133735642
 20
20.71006900195296
 30
0.0
 10
19.59957727510717
 20
20.54060568416224
 30
0.0
 10
19.21125310385128
 20
20.4051841833905
 30
0.0
 10
18.77678002798692
 20
20.29466640459584
 30
0.0
 10
18.29251598402646
 20
20.2231736920392
 30
0.0
 10
17.76034241232301
 20
20.17487058761375
 30
0.0
 10
17.38882454770759
 20
20.16984695775873
 30
0.0
 10
17.19512592225639
 20
20.16722778304232
 30
0.0
  0
MTEXT
  5
A4
330
1F
100
AcDbEntity
  8
0
  6
Continuous
 62
     7
100
AcDbMText
 10
-44.534282479
 20
-0.0195663917
 30
0.0
 40
4.83362
 41
0.0
 71
     1
 72
     1
  1
SOLIDWORKS Educational Product.
  7
SLDTEXTSTYLE0
 73
     1
 44
1.0
  0
MTEXT
  5
A5
330
1F
100
AcDbEntity
  8
0
  6
Continuous
 62
     7
100
AcDbMText
 10
-44.534282479
 20
-7.2699963917
 30
0.0
 40
4.83362
 41
0.0
 71
     1
 72
     1
  1
For Instructional Use Only.
  7
SLDTEXTSTYLE0
 73
     1
 44
1.0
  0
ENDSEC
  0
SECTION
  2
OBJECTS
  0
DICTIONARY
  5
C
330
0
100
AcDbDictionary
281
     1
  3
ACAD_GROUP
350
D
  3
ACAD_LAYOUT
350
1A
  3
ACAD_MLINESTYLE
350
17
  3
ACAD_PLOTSETTINGS
350
19
  3
ACAD_PLOTSTYLENAME
350
E
  3
ACAD_SCALELIST
350
47
  3
DWGPROPS
350
A6
  0
DICTIONARY
  5
D
102
{ACAD_REACTORS
330
C
102
}
330
C
100
AcDbDictionary
281
     1
  0
DICTIONARY
  5
1A
102
{ACAD_REACTORS
330
C
102
}
330
C
100
AcDbDictionary
281
     1
  3
Layout1
350
1E
  3
Layout2
350
26
  3
Model
350
22
  0
DICTIONARY
  5
17
102
{ACAD_REACTORS
330
C
102
}
330
C
100
AcDbDictionary
281
     1
  3
Standard
350
18
  0
DICTIONARY
  5
19
102
{ACAD_REACTORS
330
C
102
}
330
C
100
AcDbDictionary
281
     1
  0
ACDBDICTIONARYWDFLT
  5
E
102
{ACAD_REACTORS
330
C
102
}
330
C
100
AcDbDictionary
281
     1
  3
Normal
350
F
100
AcDbDictionaryWithDefault
340
F
  0
DICTIONARY
  5
47
102
{ACAD_REACTORS
330
C
102
}
330
C
100
AcDbDictionary
281
     1
  3
A0
350
48
  3
A1
350
49
  3
A2
350
4A
  3
A3
350
4B
  3
A4
350
4C
  3
A5
350
4D
  3
A6
350
4E
  3
A7
350
4F
  3
A8
350
50
  3
A9
350
51
  3
B0
350
52
  3
B1
350
53
  3
B2
350
54
  3
B3
350
55
  3
B4
350
56
  3
B5
350
57
  3
B6
350
58
  3
B7
350
59
  3
B8
350
5A
  3
B9
350
5B
  3
C0
350
5C
  3
C1
350
5D
  3
C2
350
5E
  3
C3
350
5F
  3
C4
350
60
  3
C5
350
61
  3
C6
350
62
  3
C7
350
63
  3
C8
350
64
  3
C9
350
65
  3
D0
350
66
  3
D1
350
67
  3
D2
350
68
  0
XRECORD
  5
A6
102
{ACAD_REACTORS
330
C
102
}
330
C
100
AcDbXrecord
280
     1
  1
DWGPROPS COOKIE
  2

  3

  4

  6

  7

  8
$5CFJ00-M5DIHQERSA94
  9

300
=
301
=
302
=
303
=
304
=
305
=
306
=
307
=
308
=
309
=
 40
0.0
 41
2459695.749060544
 42
2459695.749156771
  1

 90
        0
  0
LAYOUT
  5
1E
102
{ACAD_REACTORS
330
1A
102
}
330
1A
100
AcDbPlotSettings
  1

  2
none_device
  4

  6

 40
0.0
 41
0.0
 42
0.0
 43
0.0
 44
0.0
 45
0.0
 46
0.0
 47
0.0
 48
0.0
 49
0.0
140
0.0
141
0.0
142
1.0
143
1.0
 70
   688
 72
     1
 73
     0
 74
     5
  7

 75
    16
147
1.0
148
0.0
149
0.0
100
AcDbLayout
  1
Layout1
 70
     1
 71
     1
 10
0.0
 20
0.0
 11
420.0
 21
297.0
 12
0.0
 22
0.0
 32
0.0
 14
1.0000000000E+20
 24
1.0000000000E+20
 34
1.0000000000E+20
 15
-1.0000000000E+20
 25
-1.0000000000E+20
 35
-1.0000000000E+20
146
0.0
 13
0.0
 23
0.0
 33
0.0
 16
1.0
 26
0.0
 36
0.0
 17
0.0
 27
1.0
 37
0.0
 76
     0
330
1B
  0
LAYOUT
  5
26
102
{ACAD_REACTORS
330
1A
102
}
330
1A
100
AcDbPlotSettings
  1

  2
none_device
  4

  6

 40
0.0
 41
0.0
 42
0.0
 43
0.0
 44
0.0
 45
0.0
 46
0.0
 47
0.0
 48
0.0
 49
0.0
140
0.0
141
0.0
142
1.0
143
1.0
 70
   688
 72
     1
 73
     0
 74
     5
  7

 75
    16
147
1.0
148
0.0
149
0.0
100
AcDbLayout
  1
Layout2
 70
     1
 71
     2
 10
0.0
 20
0.0
 11
0.0
 21
0.0
 12
0.0
 22
0.0
 32
0.0
 14
0.0
 24
0.0
 34
0.0
 15
0.0
 25
0.0
 35
0.0
146
0.0
 13
0.0
 23
0.0
 33
0.0
 16
1.0
 26
0.0
 36
0.0
 17
0.0
 27
1.0
 37
0.0
 76
     0
330
23
  0
LAYOUT
  5
22
102
{ACAD_REACTORS
330
1A
102
}
330
1A
100
AcDbPlotSettings
  1

  2
none_device
  4
ANSI_A_(11.00_x_8.50_Inches)
  6

 40
6.35
 41
19.05
 42
6.35000508
 43
19.05000254
 44
279.4
 45
215.9
 46
87.4061733668
 47
34.9788746003
 48
0.0
 49
0.0
140
0.0
141
0.0
142
0.0816491886
143
1.0
 70
  1696
 72
     0
 73
     0
 74
     0
  7

 75
     0
147
0.0179189148
148
-1300.4909072572
149
0.0
100
AcDbLayout
  1
Model
 70
     1
 71
     0
 10
0.0
 20
0.0
 11
420.0
 21
297.0
 12
0.0
 22
0.0
 32
0.0
 14
-44.534282479
 24
1.0
 34
0.0
 15
88.8412009902
 25
51.0
 35
0.0
146
0.0
 13
0.0
 23
0.0
 33
0.0
 16
1.0
 26
0.0
 36
0.0
 17
0.0
 27
1.0
 37
0.0
 76
     0
330
1F
331
29
  0
MLINESTYLE
  5
18
102
{ACAD_REACTORS
330
17
102
}
330
17
100
AcDbMlineStyle
  2
Standard
 70
     0
  3

 62
   256
 51
90.0
 52
90.0
 71
     2
 49
0.5
 62
   256
  6
BYLAYER
 49
-0.5
 62
   256
  6
BYLAYER
  0
ACDBPLACEHOLDER
  5
F
102
{ACAD_REACTORS
330
E
102
}
330
E
  0
SCALE
  5
48
102
{ACAD_REACTORS
330
47
102
}
330
47
100
AcDbScale
 70
     0
300
1:1
140
1.0
141
1.0
290
     1
  0
SCALE
  5
49
102
{ACAD_REACTORS
330
47
102
}
330
47
100
AcDbScale
 70
     0
300
1:2
140
1.0
141
2.0
290
     0
  0
SCALE
  5
4A
102
{ACAD_REACTORS
330
47
102
}
330
47
100
AcDbScale
 70
     0
300
1:4
140
1.0
141
4.0
290
     0
  0
SCALE
  5
4B
102
{ACAD_REACTORS
330
47
102
}
330
47
100
AcDbScale
 70
     0
300
1:5
140
1.0
141
5.0
290
     0
  0
SCALE
  5
4C
102
{ACAD_REACTORS
330
47
102
}
330
47
100
AcDbScale
 70
     0
300
1:8
140
1.0
141
8.0
290
     0
  0
SCALE
  5
4D
102
{ACAD_REACTORS
330
47
102
}
330
47
100
AcDbScale
 70
     0
300
1:10
140
1.0
141
10.0
290
     0
  0
SCALE
  5
4E
102
{ACAD_REACTORS
330
47
102
}
330
47
100
AcDbScale
 70
     0
300
1:16
140
1.0
141
16.0
290
     0
  0
SCALE
  5
4F
102
{ACAD_REACTORS
330
47
102
}
330
47
100
AcDbScale
 70
     0
300
1:20
140
1.0
141
20.0
290
     0
  0
SCALE
  5
50
102
{ACAD_REACTORS
330
47
102
}
330
47
100
AcDbScale
 70
     0
300
1:30
140
1.0
141
30.0
290
     0
  0
SCALE
  5
51
102
{ACAD_REACTORS
330
47
102
}
330
47
100
AcDbScale
 70
     0
300
1:40
140
1.0
141
40.0
290
     0
  0
SCALE
  5
52
102
{ACAD_REACTORS
330
47
102
}
330
47
100
AcDbScale
 70
     0
300
1:50
140
1.0
141
50.0
290
     0
  0
SCALE
  5
53
102
{ACAD_REACTORS
330
47
102
}
330
47
100
AcDbScale
 70
     0
300
1:100
140
1.0
141
100.0
290
     0
  0
SCALE
  5
54
102
{ACAD_REACTORS
330
47
102
}
330
47
100
AcDbScale
 70
     0
300
2:1
140
2.0
141
1.0
290
     0
  0
SCALE
  5
55
102
{ACAD_REACTORS
330
47
102
}
330
47
100
AcDbScale
 70
     0
300
4:1
140
4.0
141
1.0
290
     0
  0
SCALE
  5
56
102
{ACAD_REACTORS
330
47
102
}
330
47
100
AcDbScale
 70
     0
300
8:1
140
8.0
141
1.0
290
     0
  0
SCALE
  5
57
102
{ACAD_REACTORS
330
47
102
}
330
47
100
AcDbScale
 70
     0
300
10:1
140
10.0
141
1.0
290
     0
  0
SCALE
  5
58
102
{ACAD_REACTORS
330
47
102
}
330
47
100
AcDbScale
 70
     0
300
100:1
140
100.0
141
1.0
290
     0
  0
SCALE
  5
59
102
{ACAD_REACTORS
330
47
102
}
330
47
100
AcDbScale
 70
     0
300
1/128" = 1'-0"
140
0.0078125
141
12.0
290
     0
  0
SCALE
  5
5A
102
{ACAD_REACTORS
330
47
102
}
330
47
100
AcDbScale
 70
     0
300
1/64" = 1'-0"
140
0.015625
141
12.0
290
     0
  0
SCALE
  5
5B
102
{ACAD_REACTORS
330
47
102
}
330
47
100
AcDbScale
 70
     0
300
1/32" = 1'-0"
140
0.03125
141
12.0
290
     0
  0
SCALE
  5
5C
102
{ACAD_REACTORS
330
47
102
}
330
47
100
AcDbScale
 70
     0
300
1/16" = 1'-0"
140
0.0625
141
12.0
290
     0
  0
SCALE
  5
5D
102
{ACAD_REACTORS
330
47
102
}
330
47
100
AcDbScale
 70
     0
300
3/32" = 1'-0"
140
0.09375
141
12.0
290
     0
  0
SCALE
  5
5E
102
{ACAD_REACTORS
330
47
102
}
330
47
100
AcDbScale
 70
     0
300
1/8" = 1'-0"
140
0.125
141
12.0
290
     0
  0
SCALE
  5
5F
102
{ACAD_REACTORS
330
47
102
}
330
47
100
AcDbScale
 70
     0
300
3/16" = 1'-0"
140
0.1875
141
12.0
290
     0
  0
SCALE
  5
60
102
{ACAD_REACTORS
330
47
102
}
330
47
100
AcDbScale
 70
     0
300
1/4" = 1'-0"
140
0.25
141
12.0
290
     0
  0
SCALE
  5
61
102
{ACAD_REACTORS
330
47
102
}
330
47
100
AcDbScale
 70
     0
300
3/8" = 1'-0"
140
0.375
141
12.0
290
     0
  0
SCALE
  5
62
102
{ACAD_REACTORS
330
47
102
}
330
47
100
AcDbScale
 70
     0
300
1/2" = 1'-0"
140
0.5
141
12.0
290
     0
  0
SCALE
  5
63
102
{ACAD_REACTORS
330
47
102
}
330
47
100
AcDbScale
 70
     0
300
3/4" = 1'-0"
140
0.75
141
12.0
290
     0
  0
SCALE
  5
64
102
{ACAD_REACTORS
330
47
102
}
330
47
100
AcDbScale
 70
     0
300
1" = 1'-0"
140
1.0
141
12.0
290
     0
  0
SCALE
  5
65
102
{ACAD_REACTORS
330
47
102
}
330
47
100
AcDbScale
 70
     0
300
1-1/2" = 1'-0"
140
1.5
141
12.0
290
     0
  0
SCALE
  5
66
102
{ACAD_REACTORS
330
47
102
}
330
47
100
AcDbScale
 70
     0
300
3" = 1'-0"
140
3.0
141
12.0
290
     0
  0
SCALE
  5
67
102
{ACAD_REACTORS
330
47
102
}
330
47
100
AcDbScale
 70
     0
300
6" = 1'-0"
140
6.0
141
12.0
290
     0
  0
SCALE
  5
68
102
{ACAD_REACTORS
330
47
102
}
330
47
100
AcDbScale
 70
     0
300
1'-0" = 1'-0"
140
12.0
141
12.0
290
     0
  0
ENDSEC
  0
EOF
